<svg height="389pt" viewBox="-17 0 389 389.11744" width="389pt" xmlns="http://www.w3.org/2000/svg"><path d="m348.21875 307.199219c-3.769531 0-6.828125-3.054688-6.828125-6.828125v-133.539063l-43.535156-40.046875c-2.773438-2.554687-2.953125-6.875-.398438-9.648437 2.550781-2.777344 6.859375-2.957031 9.644531-.40625l45.742188 42.082031c1.402344 1.292969 2.203125 3.117188 2.203125 5.023438v136.535156c0 3.773437-3.058594 6.828125-6.828125 6.828125zm0 0"/><path d="m6.886719 307.199219c-3.769531 0-6.8281252-3.054688-6.8281252-6.828125v-136.535156c0-1.90625.8007812-3.734376 2.2031252-5.023438l45.027343-41.425781c2.78125-2.554688 7.097657-2.375 9.644532.40625 2.554687 2.773437 2.375 7.089843-.398438 9.644531l-42.824218 39.394531v133.539063c0 3.773437-3.054688 6.828125-6.824219 6.828125zm0 0"/><path d="m191.625 26.597656c-1.648438 0-3.308594-.59375-4.617188-1.800781l-9.457031-8.699219-8.980469 8.265625c-2.777343 2.554688-7.09375 2.375-9.644531-.402343-2.554687-2.773438-2.375-7.09375.398438-9.648438l13.605469-12.511719c2.613281-2.402343 6.636718-2.402343 9.242187 0l14.078125 12.945313c2.773438 2.554687 2.953125 6.875.402344 9.644531-1.34375 1.464844-3.183594 2.207031-5.027344 2.207031zm0 0"/><path d="m300.433594 195.296875c-3.773438 0-6.828125-3.050781-6.828125-6.824219v-147.515625c0-3.773437 3.054687-6.828125 6.828125-6.828125 3.769531 0 6.824218 3.054688 6.824218 6.828125v147.515625c0 3.773438-3.054687 6.824219-6.824218 6.824219zm0 0"/><path d="m54.671875 193.109375c-3.769531 0-6.828125-3.050781-6.828125-6.824219v-114.085937c0-3.773438 3.058594-6.828125 6.828125-6.828125s6.828125 3.054687 6.828125 6.828125v114.085937c0 3.773438-3.058594 6.824219-6.828125 6.824219zm0 0"/><path d="m312.316406 389.117188h-269.527344c-23.5625 0-42.7304682-19.171876-42.7304682-42.734376v-182.546874c0-2.417969 1.2851562-4.664063 3.3750002-5.886719 2.09375-1.230469 4.671875-1.265625 6.789062-.066407l153.5625 85.996094c3.289063 1.839844 4.460938 6 2.617188 9.285156-1.839844 3.292969-5.992188 4.480469-9.292969 2.621094l-143.398437-80.300781v170.898437c0 16.035157 13.046874 29.082032 29.078124 29.082032h269.527344c16.035156 0 29.074219-13.046875 29.074219-29.082032v-170.898437l-143.90625 80.585937c-3.285156 1.855469-7.441406.679688-9.292969-2.621093-1.839844-3.285157-.667968-7.445313 2.621094-9.285157l154.070312-86.28125c2.105469-1.199218 4.6875-1.164062 6.789063.066407 2.09375 1.222656 3.375 3.46875 3.375 5.886719v182.546874c0 23.5625-19.171875 42.734376-42.730469 42.734376zm0 0"/><path d="m336.71875 379.457031c-1.550781 0-3.105469-.527343-4.386719-1.601562l-154.78125-130.011719-150.023437 126.019531c-2.878906 2.429688-7.1875 2.0625-9.613282-.832031-2.429687-2.886719-2.050781-7.191406.835938-9.621094l154.414062-129.707031c2.539063-2.132813 6.238282-2.132813 8.777344 0l159.171875 133.703125c2.886719 2.425781 3.265625 6.730469.835938 9.621094-1.351563 1.601562-3.285157 2.429687-5.230469 2.429687zm0 0"/><path d="m276.539062 75.089844h-238.933593c-16.941407 0-30.71875-13.777344-30.71875-30.71875s13.777343-30.71875 30.71875-30.71875h238.933593c16.941407 0 30.71875 13.777344 30.71875 30.71875 0 3.773437-3.054687 6.828125-6.824218 6.828125-3.773438 0-6.828125-3.054688-6.828125-6.828125 0-9.414063-7.65625-17.066406-17.066407-17.066406h-238.933593c-9.410157 0-17.066407 7.652343-17.066407 17.066406 0 9.414062 7.65625 17.066406 17.066407 17.066406h238.933593c3.769532 0 6.828126 3.054688 6.828126 6.828125s-3.058594 6.824219-6.828126 6.824219zm0 0"/><path d="m276.539062 75.089844c-16.941406 0-30.71875-13.777344-30.71875-30.71875s13.777344-30.71875 30.71875-30.71875c16.941407 0 30.71875 13.777344 30.71875 30.71875 0 3.773437-3.054687 6.828125-6.824218 6.828125-3.773438 0-6.828125-3.054688-6.828125-6.828125 0-9.414063-7.65625-17.066406-17.066407-17.066406-9.410156 0-17.066406 7.652343-17.066406 17.066406 0 9.414062 7.65625 17.066406 17.066406 17.066406 3.769532 0 6.828126 3.054688 6.828126 6.828125s-3.058594 6.824219-6.828126 6.824219zm0 0"/><path d="m300.433594 68.265625c-3.773438 0-6.828125-3.054687-6.828125-6.828125v-20.480469c0-3.773437 3.054687-6.828125 6.828125-6.828125 3.769531 0 6.824218 3.054688 6.824218 6.828125v20.480469c0 3.773438-3.054687 6.828125-6.824218 6.828125zm0 0"/><path d="m113.109375 105.398438c-3.996094-4-10.480469-4-14.480469 0-4 3.996093-4 10.480468 0 14.480468s10.484375 4 14.480469 0c4-4 4-10.484375 0-14.480468zm0 0"/><path d="m208.683594 105.398438c-4-4-10.484375-4-14.480469 0-4 3.996093-4 10.480468 0 14.480468 3.996094 4 10.480469 4 14.480469 0s4-10.484375 0-14.480468zm0 0"/><path d="m198.03125 158.21875c-.105469-10.710938-95.464844-10.710938-95.570312 0v.226562c0 18.058594 21.394531 32.699219 47.785156 32.699219 26.394531 0 47.789062-14.640625 47.789062-32.699219 0-.074218-.003906-.152343-.003906-.226562zm-48.9375 19.273438c-11.308594 0-20.480469-3.058594-20.480469-6.828126 0-3.769531 9.171875-6.828124 20.480469-6.828124 11.3125 0 20.480469 3.058593 20.480469 6.828124 0 3.769532-9.167969 6.828126-20.480469 6.828126zm0 0"/></svg>