<svg height="409.6pt" viewBox="0 0 409.6 409.6" width="409.6pt" xmlns="http://www.w3.org/2000/svg"><path d="m204.800781 102.398438c-56.554687 0-102.402343 45.847656-102.402343 102.402343 0 56.554688 45.847656 102.398438 102.402343 102.398438 56.554688 0 102.398438-45.84375 102.398438-102.398438 0-56.554687-45.84375-102.402343-102.398438-102.402343zm0 0" fill="#fbad4a"/><path d="m204.800781 314.027344c-60.226562 0-109.226562-49-109.226562-109.226563 0-60.226562 49-109.226562 109.226562-109.226562 60.226563 0 109.226563 49 109.226563 109.226562 0 60.226563-49 109.226563-109.226563 109.226563zm0-204.800782c-52.699219 0-95.574219 42.875-95.574219 95.574219s42.875 95.574219 95.574219 95.574219 95.574219-42.875 95.574219-95.574219-42.875-95.574219-95.574219-95.574219zm0 0"/><path d="m204.800781 122.878906c-45.246093 0-81.921875 36.675782-81.921875 81.921875 0 45.242188 36.675782 81.917969 81.921875 81.917969 45.242188 0 81.917969-36.675781 81.917969-81.917969 0-45.246093-36.675781-81.921875-81.917969-81.921875zm0 0" fill="#fbad4a"/><path d="m204.800781 293.546875c-48.9375 0-88.746093-39.8125-88.746093-88.746094 0-48.933593 39.808593-88.746093 88.746093-88.746093s88.746094 39.8125 88.746094 88.746093c0 48.933594-39.808594 88.746094-88.746094 88.746094zm0-163.839844c-41.40625 0-75.09375 33.6875-75.09375 75.09375s33.6875 75.09375 75.09375 75.09375 75.09375-33.6875 75.09375-75.09375-33.6875-75.09375-75.09375-75.09375zm0 0"/><path d="m182.714844 167.074219c0-.71875.480468-1.191407 1.191406-1.191407h30.199219c17.195312 0 25.308593 8.589844 25.308593 21.605469 0 9.191407-4.296874 14.4375-9.425781 17.183594v.242187c5.011719 1.914063 10.859375 8.359376 10.859375 18.265626 0 16.113281-10.148437 23.875-27.933594 23.875h-29.007812c-.710938 0-1.191406-.480469-1.191406-1.195313zm31.039062 32.585937c7.160156 0 11.578125-4.292968 11.578125-10.621094 0-6.445312-4.417969-10.746093-11.578125-10.746093h-16.242187c-.472657 0-.710938.238281-.710938.710937v19.941406c0 .472657.238281.714844.710938.714844zm-16.242187 34.980469h16.953125c7.882812 0 12.292968-4.539063 12.292968-11.34375 0-6.683594-4.410156-11.226563-12.292968-11.226563h-16.953125c-.472657 0-.710938.242188-.710938.722657v21.125c0 .484375.238281.722656.710938.722656zm0 0"/><path d="m204.800781 177.492188c-3.769531 0-6.828125-3.050782-6.828125-6.824219v-13.65625c0-3.773438 3.058594-6.824219 6.828125-6.824219s6.824219 3.050781 6.824219 6.824219v13.65625c0 3.773437-3.054688 6.824219-6.824219 6.824219zm0 0"/><path d="m204.800781 259.414062c-3.769531 0-6.828125-3.054687-6.828125-6.828124v-6.824219c0-3.773438 3.058594-6.828125 6.828125-6.828125s6.824219 3.054687 6.824219 6.828125v6.824219c0 3.773437-3.054688 6.828124-6.824219 6.828124zm0 0"/><path d="m204.800781 102.398438c-3.769531 0-6.828125-3.050782-6.828125-6.824219v-68.265625c0-3.773438 3.058594-6.828125 6.828125-6.828125s6.824219 3.054687 6.824219 6.828125v68.265625c0 3.773437-3.054688 6.824219-6.824219 6.824219zm0 0"/><path d="m127.566406 134.394531c-1.746094 0-3.492187-.667969-4.828125-2l-48.269531-48.273437c-2.667969-2.667969-2.667969-6.988282 0-9.652344 2.664062-2.667969 6.984375-2.667969 9.652344 0l48.273437 48.269531c2.664063 2.667969 2.664063 6.988281 0 9.65625-1.335937 1.332031-3.082031 2-4.828125 2zm0 0"/><path d="m84.117188 64.8125c-5.332032-5.332031-13.976563-5.332031-19.308594 0-5.332032 5.332031-5.332032 13.976562 0 19.308594 5.332031 5.332031 13.976562 5.332031 19.308594 0 5.332031-5.332032 5.332031-13.976563 0-19.308594zm0 0" fill="#2abbe9"/><path d="m74.46875 94.945312c-5.472656 0-10.617188-2.132812-14.484375-6-7.984375-7.984374-7.984375-20.972656.003906-28.960937 7.730469-7.730469 21.226563-7.730469 28.960938 0h.003906c7.980469 7.988281 7.980469 20.976563-.003906 28.960937-3.867188 3.867188-9.011719 6-14.480469 6zm0-27.304687c-1.824219 0-3.539062.707031-4.824219 2-2.664062 2.660156-2.664062 6.992187-.003906 9.652344 2.582031 2.585937 7.074219 2.585937 9.648437 0 2.664063-2.660157 2.664063-6.992188.003907-9.652344 0 0 0 0-.003907 0-1.285156-1.292969-3-2-4.820312-2zm0 0"/><path d="m330.304688 337.132812c-1.742188 0-3.492188-.667968-4.824219-2l-48.273438-48.273437c-2.664062-2.664063-2.664062-6.988281 0-9.652344 2.664063-2.664062 6.988281-2.664062 9.652344 0l48.273437 48.273438c2.664063 2.664062 2.664063 6.988281 0 9.652343-1.332031 1.332032-3.082031 2-4.828124 2zm0 0"/><path d="m344.785156 325.480469c-5.332031-5.332031-13.976562-5.332031-19.308594 0-5.332031 5.332031-5.332031 13.976562 0 19.308593 5.332032 5.332032 13.976563 5.332032 19.308594 0 5.332032-5.332031 5.332032-13.976562 0-19.308593zm0 0" fill="#2abbe9"/><path d="m335.132812 355.613281c-5.46875 0-10.613281-2.132812-14.484374-6-7.980469-7.988281-7.980469-20.972656.003906-28.960937 7.734375-7.734375 21.230468-7.734375 28.960937 0h.003907c7.984374 7.988281 7.980468 20.972656-.003907 28.960937-3.867187 3.867188-9.011719 6-14.480469 6zm0-27.308593c-1.824218 0-3.535156.707031-4.824218 2-2.664063 2.664062-2.664063 6.996093-.003906 9.65625 2.582031 2.585937 7.078124 2.585937 9.652343 0 2.664063-2.664063 2.664063-6.996094.003907-9.65625 0 0 0 0-.003907 0-1.289062-1.292969-3-2-4.824219-2zm0 0"/><path d="m282.035156 134.394531c-1.746094 0-3.496094-.667969-4.828125-2-2.664062-2.667969-2.664062-6.988281 0-9.65625l48.273438-48.269531c2.664062-2.667969 6.988281-2.667969 9.652343 0 2.664063 2.664062 2.664063 6.984375 0 9.652344l-48.273437 48.273437c-1.332031 1.332031-3.078125 2-4.824219 2zm0 0"/><path d="m344.785156 64.8125c-5.332031-5.332031-13.976562-5.332031-19.308594 0-5.332031 5.332031-5.332031 13.976562 0 19.308594 5.332032 5.332031 13.976563 5.332031 19.308594 0 5.332032-5.332032 5.332032-13.976563 0-19.308594zm0 0" fill="#2abbe9"/><path d="m335.132812 94.945312c-5.46875 0-10.613281-2.132812-14.484374-6-7.980469-7.984374-7.980469-20.972656.003906-28.960937 7.734375-7.730469 21.226562-7.730469 28.964844 0 7.980468 7.988281 7.984374 20.976563 0 28.960937h-.003907c-3.867187 3.867188-9.011719 6-14.480469 6zm0-27.304687c-1.824218 0-3.535156.707031-4.824218 2-2.664063 2.660156-2.664063 6.992187-.003906 9.652344 2.582031 2.585937 7.078124 2.585937 9.652343 0h.003907c2.660156-2.660157 2.660156-6.992188 0-9.652344-1.292969-1.292969-3.003907-2-4.828126-2zm0 0"/><path d="m79.292969 337.132812c-1.746094 0-3.492188-.667968-4.824219-2-2.667969-2.664062-2.667969-6.988281 0-9.652343l48.269531-48.273438c2.667969-2.664062 6.988281-2.664062 9.65625 0 2.664063 2.664063 2.664063 6.988281 0 9.652344l-48.273437 48.273437c-1.335938 1.332032-3.082032 2-4.828125 2zm0 0"/><path d="m84.117188 325.480469c-5.332032-5.332031-13.976563-5.332031-19.308594 0-5.332032 5.332031-5.332032 13.976562 0 19.308593 5.332031 5.332032 13.976562 5.332032 19.308594 0 5.332031-5.332031 5.332031-13.976562 0-19.308593zm0 0" fill="#2abbe9"/><path d="m74.46875 355.613281c-5.472656 0-10.617188-2.132812-14.484375-6-7.984375-7.988281-7.984375-20.972656.003906-28.960937 7.730469-7.734375 21.222657-7.734375 28.964844 0 7.980469 7.988281 7.980469 20.972656 0 28.960937h-.003906c-3.867188 3.867188-9.011719 6-14.480469 6zm0-27.308593c-1.824219 0-3.539062.707031-4.824219 2-2.664062 2.664062-2.664062 6.996093-.003906 9.65625 2.582031 2.585937 7.074219 2.585937 9.648437 0h.003907c2.660156-2.664063 2.660156-6.996094 0-9.65625-1.289063-1.292969-3.003907-2-4.824219-2zm0 0"/><path d="m218.453125 20.480469c0 7.539062-6.113281 13.652343-13.652344 13.652343-7.542969 0-13.652343-6.113281-13.652343-13.652343 0-7.539063 6.109374-13.652344 13.652343-13.652344 7.539063 0 13.652344 6.113281 13.652344 13.652344zm0 0" fill="#2abbe9"/><path d="m204.800781 40.960938c-11.292969 0-20.480469-9.1875-20.480469-20.480469s9.1875-20.480469 20.480469-20.480469 20.480469 9.1875 20.480469 20.480469-9.1875 20.480469-20.480469 20.480469zm0-27.308594c-3.765625 0-6.828125 3.0625-6.828125 6.828125s3.0625 6.828125 6.828125 6.828125c3.761719 0 6.824219-3.0625 6.824219-6.828125s-3.0625-6.828125-6.824219-6.828125zm0 0"/><path d="m204.800781 389.121094c-3.769531 0-6.828125-3.054688-6.828125-6.828125v-68.265625c0-3.773438 3.058594-6.828125 6.828125-6.828125s6.824219 3.054687 6.824219 6.828125v68.265625c0 3.773437-3.054688 6.828125-6.824219 6.828125zm0 0"/><path d="m218.453125 389.121094c0 7.539062-6.113281 13.652344-13.652344 13.652344-7.542969 0-13.652343-6.113282-13.652343-13.652344 0-7.542969 6.109374-13.65625 13.652343-13.65625 7.539063 0 13.652344 6.113281 13.652344 13.65625zm0 0" fill="#2abbe9"/><path d="m204.800781 409.601562c-11.292969 0-20.480469-9.1875-20.480469-20.480468 0-11.292969 9.1875-20.480469 20.480469-20.480469s20.480469 9.1875 20.480469 20.480469c0 11.292968-9.1875 20.480468-20.480469 20.480468zm0-27.308593c-3.765625 0-6.828125 3.058593-6.828125 6.828125 0 3.765625 3.0625 6.824218 6.828125 6.824218 3.761719 0 6.824219-3.058593 6.824219-6.824218 0-3.769532-3.0625-6.828125-6.824219-6.828125zm0 0"/><path d="m95.574219 211.625h-68.265625c-3.773438 0-6.828125-3.050781-6.828125-6.824219 0-3.773437 3.054687-6.828125 6.828125-6.828125h68.265625c3.769531 0 6.824219 3.054688 6.824219 6.828125 0 3.773438-3.054688 6.824219-6.824219 6.824219zm0 0"/><path d="m34.132812 204.800781c0 7.539063-6.113281 13.652344-13.652343 13.652344-7.539063 0-13.652344-6.113281-13.652344-13.652344 0-7.542969 6.113281-13.652343 13.652344-13.652343 7.539062 0 13.652343 6.109374 13.652343 13.652343zm0 0" fill="#2abbe9"/><path d="m20.480469 225.28125c-11.292969 0-20.480469-9.1875-20.480469-20.480469s9.1875-20.480469 20.480469-20.480469 20.480469 9.1875 20.480469 20.480469-9.1875 20.480469-20.480469 20.480469zm0-27.308594c-3.761719 0-6.828125 3.0625-6.828125 6.828125s3.066406 6.824219 6.828125 6.824219 6.828125-3.058594 6.828125-6.824219-3.066406-6.828125-6.828125-6.828125zm0 0"/><path d="m382.292969 211.625h-68.265625c-3.769532 0-6.828125-3.050781-6.828125-6.824219 0-3.773437 3.058593-6.828125 6.828125-6.828125h68.265625c3.769531 0 6.828125 3.054688 6.828125 6.828125 0 3.773438-3.058594 6.824219-6.828125 6.824219zm0 0"/><path d="m402.773438 204.800781c0 7.539063-6.113282 13.652344-13.652344 13.652344-7.542969 0-13.65625-6.113281-13.65625-13.652344 0-7.542969 6.113281-13.652343 13.65625-13.652343 7.539062 0 13.652344 6.109374 13.652344 13.652343zm0 0" fill="#2abbe9"/><path d="m389.121094 225.28125c-11.292969 0-20.480469-9.1875-20.480469-20.480469s9.1875-20.480469 20.480469-20.480469c11.292968 0 20.480468 9.1875 20.480468 20.480469s-9.1875 20.480469-20.480468 20.480469zm0-27.308594c-3.765625 0-6.828125 3.0625-6.828125 6.828125s3.0625 6.824219 6.828125 6.824219c3.761718 0 6.824218-3.058594 6.824218-6.824219s-3.0625-6.828125-6.824218-6.828125zm0 0"/></svg>